# xmcd
#
# Track frame offsets: 
#        150
#        21412
#        37300
#        54765
#        74832
#        87752
#        133327
#        157185
#        180377
#        201752
#        217622
#        243742
#        259147
#
# Disc length: 3765 seconds
#
# Revision: 5
# Processed by: cddbd v1.5.2PL0 Copyright (c) Steve Scherf et al.
# Submitted via: ExactAudioCopy v1.0b3
#
DISCID=c20eb30d
DTITLE=Lynyrd Skynyrd - Skynyrd's Innyrds Their Greatest Hits
DYEAR=1989
DGENRE=Southern Rock
TTITLE0=Sweet Home Alabama
TTITLE1=Swamp Music
TTITLE2=I Ain't The One
TTITLE3=Gimme Three Steps
TTITLE4=Double Trouble (Outtake Version)
TTITLE5=Free Bird (Outtake Version)
TTITLE6=Truck Drivin' Man
TTITLE7=Saturday Night Special
TTITLE8=Workin' For MCA
TTITLE9=What's Your Name
TTITLE10=That Smell
TTITLE11=Don't Ask Me No Questions
TTITLE12=Call Me The Breeze
EXTD=
EXTT0=
EXTT1=
EXTT2=
EXTT3=
EXTT4=
EXTT5=
EXTT6=
EXTT7=
EXTT8=
EXTT9=
EXTT10=
EXTT11=
EXTT12=
PLAYORDER=
